# xmcd
#
# Track frame offsets: 
#        150
#        14235
#        45562
#        75485
#
# Disc length: 1489 seconds
#
# Revision: 0
# Processed by: cddbd v1.5.2PL0 Copyright (c) Steve Scherf et al.
# Submitted via: ExactAudioCopyFreeDBPlugin 1.0
#
DISCID=2805cf04
DTITLE=Ian Carey - Red Light
DYEAR=2008
DGENRE=
TTITLE0=Red Light (Radio Edit)
TTITLE1=Red Light (Bingoplayers Remix)
TTITLE2=Red Light (Franky Rizardo Remix)
TTITLE3=Red Light (Original Mix)
EXTD=
EXTT0=
EXTT1=
EXTT2=
EXTT3=
PLAYORDER=
